<svg width="178" height="36" viewBox="0 0 178 36" fill="none" xmlns="http://www.w3.org/2000/svg">
<path d="M23.768 34.856C23.288 33.544 22.696 32.28 21.992 31.064C21.288 29.816 20.552 28.6 19.784 27.416C19.016 26.232 18.232 25.064 17.432 23.912C16.632 22.728 15.896 21.544 15.224 20.36V20.312H15.272H15.464C17 20.216 18.264 19.784 19.256 19.016C20.28 18.248 21.096 17.288 21.704 16.136C22.696 14.472 23.16 12.76 23.096 11C23.064 9.208 22.632 7.576 21.8 6.104C20.968 4.632 19.8 3.4 18.296 2.408C16.792 1.416 15.096 0.871998 13.208 0.775997C10.872 0.519999 8.632 0.503999 6.488 0.727998C4.344 0.951999 2.376 1.192 0.584 1.448C0.648 1.864 0.696 2.664 0.728 3.848C0.792 5 0.84 6.408 0.872 8.072C0.904 9.704 0.936 11.512 0.968 13.496C1.032 15.448 1.064 17.432 1.064 19.448C1.096 21.432 1.112 23.368 1.112 25.256C1.112 27.112 1.112 28.76 1.112 30.2C1.112 31.64 1.096 32.808 1.064 33.704C1.032 34.568 0.984 35 0.92 35C1.08 34.968 1.496 34.968 2.168 35C2.872 35.032 3.656 35.032 4.52 35C5.384 35 6.248 34.968 7.112 34.904C8.008 34.84 8.728 34.696 9.272 34.472C9.24 33.864 9.192 33.048 9.128 32.024C9.064 31 9 29.928 8.936 28.808C8.904 27.656 8.888 26.552 8.888 25.496C8.888 24.408 8.936 23.496 9.032 22.76L9.128 22.904C9.8 23.736 10.472 24.696 11.144 25.784C11.816 26.872 12.44 27.976 13.016 29.096C13.592 30.216 14.12 31.288 14.6 32.312C15.08 33.336 15.48 34.216 15.8 34.952H15.848C17.288 35.048 18.696 35.064 20.072 35C21.448 34.904 22.696 34.856 23.816 34.856H23.768ZM7.592 8.168C8.712 7.72 9.816 7.48 10.904 7.448C11.992 7.384 12.888 7.672 13.592 8.312C14.04 8.664 14.36 9.144 14.552 9.752C14.744 10.328 14.808 10.92 14.744 11.528C14.68 12.104 14.472 12.648 14.12 13.16C13.8 13.64 13.336 13.944 12.728 14.072C11.96 14.2 11.144 14.248 10.28 14.216C9.416 14.184 8.616 14.136 7.88 14.072H7.832C7.768 13.72 7.72 13.288 7.688 12.776C7.688 12.264 7.688 11.736 7.688 11.192C7.688 10.648 7.672 10.12 7.64 9.608C7.64 9.064 7.624 8.584 7.592 8.168ZM44.072 11.096C43.048 11.032 42.136 10.984 41.336 10.952C40.568 10.92 39.912 10.888 39.368 10.856C39.272 10.856 39.096 10.856 38.84 10.856C38.584 10.856 38.328 10.856 38.072 10.856C37.816 10.824 37.576 10.824 37.352 10.856C37.16 10.856 37.064 10.872 37.064 10.904C37.064 11.288 37.016 11.672 36.92 12.056C36.856 12.408 36.84 12.84 36.872 13.352C36.648 12.808 36.376 12.392 36.056 12.104C35.736 11.784 35.368 11.56 34.952 11.432C34.536 11.272 34.072 11.192 33.56 11.192C33.08 11.16 32.552 11.144 31.976 11.144C30.856 11.176 29.8 11.48 28.808 12.056C27.816 12.6 26.952 13.368 26.216 14.36C25.512 15.32 24.952 16.472 24.536 17.816C24.12 19.16 23.912 20.632 23.912 22.232C23.912 23.512 24.04 24.904 24.296 26.408C24.584 27.912 25.016 29.304 25.592 30.584C26.168 31.864 26.888 32.936 27.752 33.8C28.648 34.664 29.72 35.096 30.968 35.096C32.088 35.096 33.224 34.824 34.376 34.28C35.56 33.736 36.536 33.08 37.304 32.312C37.304 32.632 37.272 32.904 37.208 33.128C37.144 33.352 37.112 33.64 37.112 33.992C37.112 34.248 37.144 34.472 37.208 34.664C37.304 34.856 37.464 34.984 37.688 35.048C38.04 35.048 38.376 35.032 38.696 35C39.048 34.936 39.4 34.904 39.752 34.904C40.264 34.904 40.776 34.936 41.288 35C41.832 35.032 42.36 35.048 42.872 35.048H43.448C43.832 34.984 44.024 34.744 44.024 34.328C44.056 33.912 44.072 33.496 44.072 33.08C44.296 29.656 44.344 26.28 44.216 22.952C44.088 19.592 44.072 16.184 44.168 12.728V12.248C44.168 12.056 44.152 11.864 44.12 11.672C44.12 11.48 44.104 11.288 44.072 11.096ZM30.104 20.648C30.264 19.848 30.712 19.144 31.448 18.536C32.216 17.896 33.256 17.576 34.568 17.576C35.24 17.576 35.736 17.624 36.056 17.72C36.408 17.816 36.648 18.04 36.776 18.392C36.936 18.744 37.016 19.256 37.016 19.928C37.048 20.568 37.064 21.448 37.064 22.568C37.064 23.464 37.048 24.28 37.016 25.016C37.016 25.72 36.92 26.328 36.728 26.84C36.568 27.32 36.28 27.704 35.864 27.992C35.48 28.248 34.888 28.376 34.088 28.376C32.744 28.376 31.688 27.88 30.92 26.888C30.184 25.864 29.816 24.632 29.816 23.192C29.816 22.776 29.832 22.36 29.864 21.944C29.896 21.496 29.976 21.064 30.104 20.648ZM53.9401 13.592C53.9081 13.144 53.8921 12.744 53.8921 12.392C53.9241 12.04 53.9081 11.592 53.8441 11.048C53.8441 10.952 53.7161 10.904 53.4601 10.904C53.2041 10.872 52.9161 10.872 52.5961 10.904C52.2761 10.936 51.9561 10.984 51.6361 11.048C51.3161 11.08 51.0921 11.096 50.9641 11.096C50.5801 11.128 50.2601 11.16 50.0041 11.192C49.7481 11.192 49.5081 11.192 49.2841 11.192C49.0601 11.192 48.8201 11.192 48.5641 11.192C48.3081 11.16 47.9881 11.128 47.6041 11.096C47.4761 15.32 47.4441 19.4 47.5081 23.336C47.6041 27.272 47.6521 31.208 47.6521 35.144C48.4201 35.08 49.0601 35.064 49.5721 35.096C50.0841 35.128 50.5481 35.144 50.9641 35.144C51.3801 35.176 51.7801 35.176 52.1641 35.144C52.5801 35.112 53.0601 35.016 53.6041 34.856V34.664C53.7321 33.608 53.7961 32.552 53.7961 31.496C53.7961 30.44 53.7641 29.384 53.7001 28.328C53.6681 27.24 53.6361 26.168 53.6041 25.112C53.5721 24.024 53.5881 22.92 53.6521 21.8C53.7161 20.936 53.9401 20.296 54.3241 19.88C54.7081 19.432 55.1401 19.144 55.6201 19.016C56.1001 18.856 56.5801 18.824 57.0601 18.92C57.5721 18.984 57.9561 19.08 58.2121 19.208C58.2441 19.24 58.2761 19.256 58.3081 19.256C58.3401 19.256 58.3721 19.272 58.4041 19.304C58.6601 19.496 58.8521 19.768 58.9801 20.12C59.1401 20.472 59.2521 20.872 59.3161 21.32C59.4121 21.768 59.4761 22.232 59.5081 22.712C59.5401 23.16 59.5721 23.576 59.6041 23.96C59.6681 24.824 59.7001 25.752 59.7001 26.744C59.7321 27.736 59.7321 28.728 59.7001 29.72C59.7001 30.712 59.7001 31.672 59.7001 32.6C59.7001 33.528 59.7321 34.36 59.7961 35.096C60.9161 35.096 61.9081 35.096 62.7721 35.096C63.6681 35.128 64.6761 35.064 65.7961 34.904C65.7321 33.816 65.7161 32.552 65.7481 31.112C65.7801 29.672 65.8121 28.184 65.8441 26.648C65.8761 25.08 65.8921 23.544 65.8921 22.04C65.9241 20.504 65.9081 19.096 65.8441 17.816C65.8121 16.536 65.7001 15.448 65.5081 14.552C65.3481 13.624 65.1081 13.016 64.7881 12.728C64.1161 12.152 63.3641 11.752 62.5321 11.528C61.7001 11.304 60.8361 11.208 59.9401 11.24C59.0761 11.272 58.2281 11.432 57.3961 11.72C56.5641 12.008 55.8121 12.392 55.1401 12.872C54.9801 13 54.7721 13.128 54.5161 13.256C54.2921 13.384 54.1001 13.496 53.9401 13.592ZM88.5095 11.096C87.4855 11.032 86.5735 10.984 85.7735 10.952C85.0055 10.92 84.3495 10.888 83.8055 10.856C83.7095 10.856 83.5335 10.856 83.2775 10.856C83.0215 10.856 82.7655 10.856 82.5095 10.856C82.2535 10.824 82.0135 10.824 81.7895 10.856C81.5975 10.856 81.5015 10.872 81.5015 10.904C81.5015 11.288 81.4535 11.672 81.3575 12.056C81.2935 12.408 81.2775 12.84 81.3095 13.352C81.0855 12.808 80.8135 12.392 80.4935 12.104C80.1735 11.784 79.8055 11.56 79.3895 11.432C78.9735 11.272 78.5095 11.192 77.9975 11.192C77.5175 11.16 76.9895 11.144 76.4135 11.144C75.2935 11.176 74.2375 11.48 73.2455 12.056C72.2535 12.6 71.3895 13.368 70.6535 14.36C69.9495 15.32 69.3895 16.472 68.9735 17.816C68.5575 19.16 68.3495 20.632 68.3495 22.232C68.3495 23.512 68.4775 24.904 68.7335 26.408C69.0215 27.912 69.4535 29.304 70.0295 30.584C70.6055 31.864 71.3255 32.936 72.1895 33.8C73.0855 34.664 74.1575 35.096 75.4055 35.096C76.5255 35.096 77.6615 34.824 78.8135 34.28C79.9975 33.736 80.9735 33.08 81.7415 32.312C81.7415 32.632 81.7095 32.904 81.6455 33.128C81.5815 33.352 81.5495 33.64 81.5495 33.992C81.5495 34.248 81.5815 34.472 81.6455 34.664C81.7415 34.856 81.9015 34.984 82.1255 35.048C82.4775 35.048 82.8135 35.032 83.1335 35C83.4855 34.936 83.8375 34.904 84.1895 34.904C84.7015 34.904 85.2135 34.936 85.7255 35C86.2695 35.032 86.7975 35.048 87.3095 35.048H87.8855C88.2695 34.984 88.4615 34.744 88.4615 34.328C88.4935 33.912 88.5095 33.496 88.5095 33.08C88.7335 29.656 88.7815 26.28 88.6535 22.952C88.5255 19.592 88.5095 16.184 88.6055 12.728V12.248C88.6055 12.056 88.5895 11.864 88.5575 11.672C88.5575 11.48 88.5415 11.288 88.5095 11.096ZM74.5415 20.648C74.7015 19.848 75.1495 19.144 75.8855 18.536C76.6535 17.896 77.6935 17.576 79.0055 17.576C79.6775 17.576 80.1735 17.624 80.4935 17.72C80.8455 17.816 81.0855 18.04 81.2135 18.392C81.3735 18.744 81.4535 19.256 81.4535 19.928C81.4855 20.568 81.5015 21.448 81.5015 22.568C81.5015 23.464 81.4855 24.28 81.4535 25.016C81.4535 25.72 81.3575 26.328 81.1655 26.84C81.0055 27.32 80.7175 27.704 80.3015 27.992C79.9175 28.248 79.3255 28.376 78.5255 28.376C77.1815 28.376 76.1255 27.88 75.3575 26.888C74.6215 25.864 74.2535 24.632 74.2535 23.192C74.2535 22.776 74.2695 22.36 74.3015 21.944C74.3335 21.496 74.4135 21.064 74.5415 20.648ZM111.391 1.544C110.335 1.448 109.263 1.4 108.175 1.4C107.599 1.4 107.023 1.416 106.447 1.448C105.871 1.48 105.311 1.56 104.767 1.688V1.736C104.639 3.144 104.543 4.744 104.479 6.536C104.447 8.296 104.399 10.104 104.335 11.96C104.303 13.816 104.255 15.64 104.191 17.432C104.127 19.192 104.031 20.76 103.903 22.136C103.711 21.656 103.487 20.92 103.231 19.928C103.007 18.936 102.767 17.928 102.511 16.904C102.287 15.88 102.047 14.968 101.791 14.168C101.567 13.336 101.391 12.872 101.263 12.776C101.231 12.808 101.215 12.84 101.215 12.872C101.215 12.904 101.199 12.952 101.167 13.016C100.815 14.456 100.463 15.88 100.111 17.288C99.7913 18.664 99.4233 20.072 99.0073 21.512C98.6553 20.136 98.4313 18.584 98.3353 16.856C98.2393 15.128 98.1913 13.368 98.1913 11.576C98.1913 9.784 98.1913 8.008 98.1913 6.248C98.1913 4.488 98.1273 2.904 97.9993 1.496C97.4233 1.464 96.8153 1.432 96.1753 1.4C95.5353 1.368 94.8953 1.352 94.2553 1.352C93.7113 1.352 93.1673 1.384 92.6233 1.448C92.1113 1.48 91.6153 1.528 91.1353 1.592V1.64C91.2313 7.176 91.6473 12.712 92.3833 18.248C93.1193 23.784 93.8713 29.288 94.6393 34.76H94.6873C95.3913 34.856 95.9993 34.904 96.5113 34.904C96.9593 34.904 97.3593 34.888 97.7113 34.856C98.0633 34.792 98.4473 34.728 98.8633 34.664C99.1193 34.248 99.3433 33.656 99.5353 32.888C99.7273 32.12 99.9193 31.336 100.111 30.536C100.303 29.704 100.495 28.936 100.687 28.232C100.911 27.496 101.167 26.984 101.455 26.696H101.503C101.791 27.144 102.047 27.752 102.271 28.52C102.495 29.288 102.719 30.088 102.943 30.92C103.167 31.72 103.375 32.488 103.567 33.224C103.791 33.928 104.047 34.472 104.335 34.856H104.911H106.639C106.959 34.856 107.247 34.856 107.503 34.856C107.791 34.856 108.047 34.824 108.271 34.76C108.719 29.192 109.231 23.656 109.807 18.152C110.415 12.648 110.959 7.128 111.439 1.592L111.391 1.544ZM119.316 22.952C119.636 23.016 120.148 23.064 120.852 23.096C121.556 23.128 122.34 23.144 123.204 23.144C124.1 23.144 125.028 23.128 125.988 23.096C126.948 23.064 127.844 23.016 128.676 22.952C129.54 22.888 130.276 22.824 130.884 22.76C131.524 22.696 131.956 22.632 132.18 22.568C132.276 21.224 132.276 19.896 132.18 18.584C132.084 17.272 131.796 16.072 131.316 14.984C130.868 13.896 130.196 12.968 129.3 12.2C128.404 11.432 127.22 10.92 125.748 10.664C124.596 10.376 123.412 10.248 122.196 10.28C120.98 10.312 119.828 10.504 118.74 10.856C117.652 11.176 116.676 11.672 115.812 12.344C114.948 12.984 114.308 13.768 113.892 14.696C113.508 15.752 113.252 16.84 113.124 17.96C113.028 19.048 112.932 20.184 112.836 21.368C112.772 22.68 112.804 23.992 112.932 25.304C113.06 26.616 113.3 27.864 113.652 29.048C114.004 30.2 114.468 31.272 115.044 32.264C115.62 33.224 116.34 34.008 117.204 34.616C117.972 35.064 118.804 35.352 119.7 35.48C120.596 35.48 121.572 35.512 122.628 35.576C123.716 35.64 124.772 35.64 125.796 35.576C126.82 35.512 127.764 35.32 128.628 35C129.492 34.68 130.196 34.136 130.74 33.368C130.964 33.176 131.14 32.84 131.268 32.36C131.428 31.848 131.556 31.256 131.652 30.584C131.748 29.88 131.828 29.128 131.892 28.328C131.956 27.528 132.02 26.712 132.084 25.88C131.732 25.784 131.284 25.736 130.74 25.736C130.196 25.704 129.62 25.704 129.012 25.736C128.436 25.768 127.876 25.8 127.332 25.832C126.788 25.832 126.356 25.816 126.036 25.784C126.1 27.096 125.892 28.088 125.412 28.76C124.964 29.4 124.404 29.784 123.732 29.912C123.06 30.04 122.372 29.928 121.668 29.576C120.964 29.224 120.42 28.68 120.036 27.944C119.684 27.368 119.476 26.776 119.412 26.168C119.38 25.56 119.348 24.776 119.316 23.816V22.952ZM125.124 15.512C125.7 15.8 126.148 16.232 126.468 16.808C126.82 17.384 126.996 17.992 126.996 18.632C126.996 18.888 126.996 19.064 126.996 19.16C126.996 19.224 126.9 19.272 126.708 19.304C126.548 19.304 126.26 19.288 125.844 19.256C125.428 19.224 124.804 19.208 123.972 19.208C122.756 19.208 121.828 19.224 121.188 19.256C120.58 19.256 120.132 19.24 119.844 19.208C119.556 19.144 119.396 19.048 119.364 18.92C119.364 18.76 119.396 18.504 119.46 18.152C119.524 17.736 119.62 17.336 119.748 16.952C119.908 16.568 120.132 16.232 120.42 15.944C120.708 15.656 121.092 15.432 121.572 15.272C122.052 15.112 122.676 15.032 123.444 15.032C123.796 15.032 124.1 15.08 124.356 15.176C124.612 15.24 124.868 15.352 125.124 15.512ZM141.172 1.256C141.172 1.224 140.948 1.192 140.5 1.16C140.084 1.096 139.556 1.064 138.916 1.064C138.308 1.032 137.652 1.032 136.948 1.064C136.244 1.064 135.636 1.112 135.124 1.208V4.376C135.124 7.032 135.092 9.688 135.028 12.344C134.964 15 134.9 17.624 134.836 20.216C134.804 22.776 134.772 25.304 134.74 27.8C134.74 30.264 134.772 32.648 134.836 34.952C135.828 34.952 136.916 34.968 138.1 35C139.284 35.064 140.356 35.032 141.316 34.904C141.348 34.84 141.364 34.728 141.364 34.568C141.364 34.248 141.364 33.992 141.364 33.8C141.396 33.608 141.412 33.336 141.412 32.984C141.476 32.824 141.54 32.712 141.604 32.648C141.7 32.552 141.796 32.6 141.892 32.792C142.372 33.752 143.012 34.376 143.812 34.664C144.612 34.92 145.46 34.984 146.356 34.856C148.18 34.728 149.62 34.264 150.676 33.464C151.732 32.632 152.516 31.592 153.028 30.344C153.572 29.064 153.924 27.64 154.084 26.072C154.244 24.504 154.356 22.92 154.42 21.32C154.42 20.2 154.34 19.112 154.18 18.056C154.052 17 153.828 16.04 153.508 15.176C153.22 14.28 152.82 13.528 152.308 12.92C151.828 12.28 151.236 11.832 150.532 11.576C149.668 11.256 148.708 11.064 147.652 11C146.628 10.904 145.652 10.904 144.724 11C143.796 11.064 143.012 11.208 142.372 11.432C141.732 11.656 141.38 11.912 141.316 12.2C141.348 10.696 141.364 9.48 141.364 8.552C141.364 7.624 141.364 6.888 141.364 6.344C141.364 5.768 141.348 5.336 141.316 5.048C141.316 4.728 141.3 4.44 141.268 4.184C141.268 3.896 141.252 3.592 141.22 3.272C141.22 2.92 141.204 2.424 141.172 1.784V1.256ZM148.612 19.88C148.772 20.328 148.868 20.792 148.9 21.272C148.932 21.752 148.948 22.216 148.948 22.664C148.948 23.464 148.852 24.248 148.66 25.016C148.468 25.752 148.18 26.424 147.796 27.032C147.412 27.608 146.948 28.072 146.404 28.424C145.86 28.776 145.252 28.952 144.58 28.952C143.748 28.952 143.108 28.776 142.66 28.424C142.212 28.072 141.86 27.592 141.604 26.984C141.38 26.376 141.236 25.656 141.172 24.824C141.14 23.96 141.124 23.016 141.124 21.992C141.124 20.744 141.14 19.768 141.172 19.064C141.236 18.328 141.364 17.768 141.556 17.384C141.748 17 142.036 16.76 142.42 16.664C142.836 16.536 143.38 16.472 144.052 16.472C145.364 16.472 146.404 16.76 147.172 17.336C147.972 17.912 148.452 18.76 148.612 19.88ZM174.286 5.384C173.71 4.456 172.942 3.624 171.982 2.888C171.054 2.12 170.078 1.608 169.054 1.352C168.126 1.384 167.166 1.384 166.174 1.352C165.214 1.32 164.238 1.304 163.246 1.304C162.254 1.272 161.262 1.304 160.27 1.4C159.31 1.464 158.382 1.608 157.486 1.832C157.454 1.864 157.422 1.896 157.39 1.928C157.39 1.96 157.374 1.992 157.342 2.024C157.406 4.808 157.406 7.624 157.342 10.472C157.31 13.288 157.294 16.088 157.294 18.872C157.294 21.656 157.342 24.408 157.438 27.128C157.534 29.816 157.758 32.424 158.11 34.952C158.142 34.92 158.158 34.904 158.158 34.904C160.174 34.904 162.254 34.904 164.398 34.904C166.542 34.872 168.67 34.824 170.782 34.76C171.998 33.256 173.15 31.656 174.238 29.96C175.358 28.264 176.238 26.472 176.878 24.584C176.878 24.552 176.878 24.536 176.878 24.536C176.91 24.536 176.926 24.52 176.926 24.488C177.214 23.016 177.374 21.528 177.406 20.024C177.47 18.488 177.534 16.968 177.598 15.464C177.566 14.952 177.518 14.456 177.454 13.976C177.422 13.464 177.326 12.952 177.166 12.44C176.878 11.16 176.494 9.944 176.014 8.792C175.566 7.608 174.99 6.472 174.286 5.384ZM169.87 22.808C169.678 23.096 169.454 23.384 169.198 23.672C168.974 23.928 168.702 24.152 168.382 24.344C168.222 24.408 168.078 24.488 167.95 24.584C167.822 24.648 167.678 24.664 167.518 24.632C166.942 24.696 166.334 24.744 165.694 24.776C165.086 24.808 164.606 24.664 164.254 24.344C164.19 23.256 164.158 22.168 164.158 21.08C164.158 19.96 164.174 18.872 164.206 17.816C164.238 16.728 164.254 15.688 164.254 14.696C164.254 13.704 164.222 12.776 164.158 11.912V11.72H164.206H164.302C164.878 11.592 165.486 11.544 166.126 11.576C166.766 11.576 167.358 11.608 167.902 11.672C168.446 11.864 168.894 12.152 169.246 12.536C169.598 12.888 169.886 13.304 170.11 13.784C170.366 14.264 170.558 14.776 170.686 15.32C170.814 15.832 170.926 16.328 171.022 16.808C171.278 17.992 171.278 19.08 171.022 20.072C170.798 21.064 170.414 21.976 169.87 22.808Z" fill="white"/>
</svg>
